<svg xmlns="http://www.w3.org/2000/svg" viewBox="0 0 801.95 254.83"><defs><style>.cls-1{font-size:48px;font-family:Tahoma;letter-spacing:0.4em;}.cls-2{letter-spacing:0.39em;}.cls-3{letter-spacing:0.4em;}</style></defs><g id="Layer_2" data-name="Layer 2"><g id="Layer_1-2" data-name="Layer 1"><g id="Layer_2-2" data-name="Layer 2"><g id="Layer_1-2-2" data-name="Layer 1-2"><path d="M138.47,78.49H35.33a10,10,0,0,1-10-10V28.64A23.43,23.43,0,0,0,1.9,5.21h0v170h0a23.43,23.43,0,0,0,23.43-23.43h0V111.92a10,10,0,0,1,10-10H138.47a10,10,0,0,1,10,10v39.86a23.43,23.43,0,0,0,23.43,23.43h0V5.21h0a23.43,23.43,0,0,0-23.43,23.43V68.49A10,10,0,0,1,138.47,78.49Z"/><path d="M198.35,175.21h0A47.52,47.52,0,0,0,239.79,151L288.1,65a10,10,0,0,1,17.44,0l48.19,85.89a47.64,47.64,0,0,0,41.51,24.31h0L296.9,0Z"/><path d="M421.69,5.21V151.77a23.44,23.44,0,0,0,23.42,23.44h0V28.61a23.4,23.4,0,0,0-23.4-23.4Z"/><path d="M622.51,74.61A84.67,84.67,0,0,0,645.1,16.92V5.21H632.45A10.77,10.77,0,0,0,621.67,16v0h0c0,33-25.65,60.89-58.64,62.43A61.62,61.62,0,0,1,498.6,19.74c0-.94-.07-1.87-.07-2.81h0a11.71,11.71,0,0,0-11.7-11.72H475.1V16.92a85,85,0,0,0,73.29,84.18v74.11h0a23.43,23.43,0,0,0,23.42-23.43V101.1A84.68,84.68,0,0,0,622.51,74.61Z"/><path d="M701.7,0,603.15,175.21h0A47.5,47.5,0,0,0,644.59,151L692.9,65a10,10,0,0,1,17.44,0l48.19,85.89A47.64,47.64,0,0,0,800,175.2h0Z"/></g></g><text class="cls-1" transform="translate(0 234.72)">GAME FOR EVE<tspan class="cls-2" x="556.42" y="0">RY</tspan><tspan class="cls-3" x="651.42" y="0">ONE</tspan></text></g></g></svg>