<svg xmlns="http://www.w3.org/2000/svg" viewBox="0 0 1097.02 538.37"><g id="Layer_2" data-name="Layer 2"><path d="M223.31,450.56h31.08a3.27,3.27,0,0,1,2.28,2.28v.44Q249,457.95,249,464.47v58.79q0,6.53,7.71,11.2v.43a2.51,2.51,0,0,1-2.28,2.18H223.31c-1.45-.22-2.21-.94-2.29-2.18v-.43q7.83-4.68,7.83-11.2V464.47q0-6.53-7.83-11.19v-.44A3.27,3.27,0,0,1,223.31,450.56Z"/><path d="M299.92,450.78h23.91a4,4,0,0,1,4.35,2.06q20.86,49.46,20.87,51.3h.43q17.61-47.82,20.33-52.49a3.64,3.64,0,0,1,2.71-.87h17.06c.37,0,.84.43,1.42,1.3v84.77q-9.24.1-14.08-3a10,10,0,0,1-4.83-8.81V477.4h-.55L351,534.13l-2.93.22q-6.63,0-9.13-4.13-9.88-26.62-21.41-55.86h-.43V525q0,8.06-7.72,11c-2.1.72-3.41,1-3.91.87l-.55-.87V467.19q0-10.11-8.15-14.13A2.86,2.86,0,0,1,299.92,450.78Zm5.44,86.07a.39.39,0,0,1-.44-.43v-.87c.58.28.87.58.87.87S305.65,536.92,305.36,536.85Z"/><path d="M447.62,451h30.21q36.07,0,36.08,26.63,0,20.33-21.19,25.65a95,95,0,0,1-21.63,1v16.08q0,12.82-17.39,18c-1.16-.07-1.66-.65-1.52-1.74V465.88q0-8.14-7.71-12.17v-.87A3,3,0,0,1,447.62,451Zm23.47,10.33v32.49h8.59q15.75,0,15.76-16.19t-16.2-16.3Z"/><path d="M558,450.56h55.76a3.08,3.08,0,0,1,2.28.87l2.5,11.52v1.41a1.83,1.83,0,0,1-1.63,1.41q-3-4.33-8.91-4.13H580.86V486.1h30.75a1.77,1.77,0,0,1,1.31,1.84v7.29a1.81,1.81,0,0,1-1.74,1.84q-27.39.12-30.32.11v25.76h26q9.24-.54,9.24-4.24h1.3a2,2,0,0,1,1.2,1.85l-1.63,15a1.81,1.81,0,0,1-2,1.3H563.79c-1.23-.65-1.81-1.92-1.74-3.8V463.93q0-6.75-7.6-10.65A3.59,3.59,0,0,1,558,450.56Z"/><path d="M665.62,450.67h21.74c.44,0,.87.47,1.3,1.41v40.1h.44l21.74-31.08.21-1.52q0-4.24-5.54-6.63v-.44a3.05,3.05,0,0,1,3.15-1.84h24.78c2.1,0,3.15.9,3.15,2.71q-8.25,1.74-12.28,8.05L708.66,484q21.52,40.43,24.89,43a45.59,45.59,0,0,0,10.11,7.61v.54a1.71,1.71,0,0,1-1.31,1.3l-8.8.22q-13.15.66-21-9.78L697.25,499h-.11l-8.48,10.65v10q0,14-17.71,16.84l-.43-.87v-63q0-17.28-7.94-19.24V453A2.88,2.88,0,0,1,665.62,450.67ZM671,536.52a.38.38,0,0,1-.43-.43v-.87c.57.29.87.58.87.87A.38.38,0,0,1,671,536.52Z"/><path d="M849,451a2.05,2.05,0,0,1,1.74,1.85v1.41l-37,69.56v.32h29q6,0,8.59-4.23a2,2,0,0,1,1.74,1.84,133.32,133.32,0,0,1-3.37,13.7,2.3,2.3,0,0,1-2,.87H785.06q-1.95-.76-1.08-2.94l38.8-71.73h-22.5q-8.6.23-11.74,4.57h-.43a1.53,1.53,0,0,1-1.42-2q1.41-8.69,2.29-12.39a1.38,1.38,0,0,1,1.3-.87Z"/><path d="M26.29,110.06c3.15,1.21,6.07,2.32,8.83,3.35s5.36,2,7.86,2.93l7.3,2.66c2.38.86,4.72,1.7,7.1,2.54l7.3,2.57c2.51.87,5.12,1.77,7.89,2.71s5.7,1.94,8.85,3c1.42.47,2.67,2.57,3.75,6.28,0,2.64,0,5.24,0,7.8s0,5.1,0,7.6,0,5,0,7.42,0,4.85,0,7.24,0,4.74,0,7.08,0,4.64,0,6.92q0,6.85,0,13.43t0,12.95q0,6.36,0,12.55t0,12.25q0,6.06,0,12c0,4,0,7.94,0,11.9s0,7.89,0,11.85,0,7.91,0,11.9,0,8,0,12,0,8.12,0,12.25,0,8.31,0,12.55,0,8.56,0,12.95,0,8.86,0,13.43c0,2.28,0,4.59,0,6.92s0,4.69,0,7.07,0,4.8,0,7.24,0,4.91,0,7.42,0,5,0,7.6,0,5.16,0,7.79c0,4.58-.16,9-.51,13.31S84.38,408,83.66,412A114,114,0,0,1,81,423.68a103.58,103.58,0,0,1-3.8,10.89,99.05,99.05,0,0,1-4.9,10.16,94.88,94.88,0,0,1-6,9.45,98.26,98.26,0,0,1-7.1,8.77,106.24,106.24,0,0,1-8.19,8.1,117.05,117.05,0,0,1-9.3,7.45q-3.54,2.07-7.19,3.82c-2.43,1.16-4.89,2.23-7.38,3.18s-5,1.79-7.58,2.53-5.15,1.35-7.77,1.85a40.08,40.08,0,0,1-8,1.17C1.94,491,.54,489.14,0,486.2A88.54,88.54,0,0,0,8.23,479a87.61,87.61,0,0,0,7.26-8.12,89.34,89.34,0,0,0,6.29-9.05,98.72,98.72,0,0,0,5.32-10,109,109,0,0,0,4.34-10.95q1.93-5.72,3.38-11.94T37.22,416q.48-3.36.84-6.86t.6-7.13q.23-3.63.35-7.41c.08-2.51.11-5.07.11-7.68s0-5.32,0-7.92,0-5.16,0-7.68,0-5,0-7.47,0-4.87,0-7.26v-7.07q0-3.5,0-6.9c0-4.55,0-9,0-13.35s0-8.63,0-12.84,0-8.35,0-12.46,0-8.17,0-12.21,0-8.07,0-12.09,0-8,0-12.09,0-8.1,0-12.21,0-8.25,0-12.46,0-8.49,0-12.85,0-8.79,0-13.34v-6.9q0-3.5,0-7.07t0-7.27c0-2.45,0-4.94,0-7.46s0-5.09,0-7.69,0-5.24,0-7.92a86.26,86.26,0,0,0-.6-10.24,83.33,83.33,0,0,0-1.76-9.88,82.5,82.5,0,0,0-2.93-9.57,87.65,87.65,0,0,0-4.1-9.3,98.15,98.15,0,0,0-5.26-9.05q-2.91-4.47-6.42-8.84v-1.46q.93-3.3,3.05-4.3C22.26,109.11,24.08,109.21,26.29,110.06Z"/><path d="M145,220.38c3.5.71,6.84,1.38,10,2l9.28,1.8c3,.58,5.86,1.12,8.67,1.65l8.25,1.52c2.69.49,5.34,1,8,1.43l7.9,1.39,8,1.37,8.25,1.37c2.82.47,5.71.93,8.69,1.41s6.09,1,9.31,1.46l10.09,1.54a6.14,6.14,0,0,1,4,2.18c.89,4.36,1.55,7.62,2.22,10.87s1.33,6.51,2.22,10.83c0,1,0,1.55,0,2.59A2.76,2.76,0,0,1,247,266a20.29,20.29,0,0,0-6.52-6.72,20.54,20.54,0,0,0-9-2.9l-8.72-1.21c-2.7-.37-5.23-.73-7.66-1.08l-7.15-1L200.89,252l-7.66-1.17-8.71-1.36c0,4.75,0,8.91,0,12.77s0,7.43.05,11,0,7.13,0,11,0,8,.05,12.77c3.55.4,6.8.75,9.86,1.08l8.68.93,8.08.83,8.09.82,8.69.85,9.87.94a3.65,3.65,0,0,1,2.27,3.61c0,2.69,0,4.71,0,6.72s0,4,0,6.72c-.12,2-1.21,3.19-3,3.18-2.52,0-5.06-.19-7.53-.41s-4.87-.49-7.11-.66l-6.44-.49-5.85-.46-9.93-.79-7.57-.63-5.22-.44-2.87-.25v.84c0,4,0,7.82,0,11.35s0,6.83,0,9.87,0,5.83,0,8.38,0,4.84,0,6.89c0,4.1,0,7.22,0,9.34s0,3.25,0,3.39l9.86.39,8.57.32,8.13.31,8.57.3,9.87.35q8-.24,12-2.05t4-5.2l2.26.08a3.79,3.79,0,0,1,2.09,3.46l-.94,9.53-.82,8.32-.94,9.55a3.07,3.07,0,0,1-3.38,2.36l-10.15-.1-9.29-.1-8.66-.1-8.23-.1-8-.1-8-.1-8.23-.1-8.65-.12-9.29-.13-10.13-.15c-2.14-1.34-3.15-3.91-3-7.69q0-3.78,0-7.41t0-7.1c0-4.63,0-9.07-.05-13.37s0-8.46,0-12.51,0-8,0-11.87,0-7.71,0-11.51,0-7.57,0-11.37,0-7.62,0-11.5,0-7.83,0-11.88,0-8.21-.05-12.51,0-8.74,0-13.38q0-3.47,0-7.1t0-7.41a26,26,0,0,0-1.49-8.66,28.85,28.85,0,0,0-4.41-8,42.7,42.7,0,0,0-7.32-7.36C139.93,221.18,142,219.77,145,220.38Z"/><path d="M294.05,244.84l8.24,1,7.15.83,6.79.77,7.16.78,8.24.87a13,13,0,0,1,5.71,1.65,11,11,0,0,1,3.94,4c2.46,3.63,4.8,7.06,7.05,10.33s4.38,6.38,6.45,9.37,4.06,5.86,6,8.65,3.84,5.5,5.71,8.16l5.56,7.89,5.57,7.83c1.87,2.63,3.76,5.28,5.71,8s3.93,5.48,6,8.34,4.21,5.82,6.45,8.89,4.57,6.28,7,9.64c0-4.71,0-9,0-12.91l0-11.22c0-3.58,0-7.07,0-10.65s0-7.26,0-11.22,0-8.2,0-12.91A32.77,32.77,0,0,0,401,272.45a24.36,24.36,0,0,0-4.75-8.28,28.57,28.57,0,0,0-7.9-6.2c.74-2.48,2.56-3.6,5.47-3.38l9.28.66,8.07.55,7.67.49,8.07.49,9.29.53a5.38,5.38,0,0,1,3.23,3v1.59a18.25,18.25,0,0,0-8,3.28,15.58,15.58,0,0,0-5,6.6,28.32,28.32,0,0,0-1.89,9.94q0,3.78,0,7.35c0,2.39,0,4.71,0,7,0,4.54,0,8.86,0,13s0,8.18,0,12.1,0,7.74,0,11.53,0,7.56,0,11.35,0,7.62,0,11.53,0,7.93,0,12.1,0,8.48,0,13q0,3.41,0,7t0,7.36c-.13,1.42-1.19,2.42-3.2,3l-6,0-6,0a14.61,14.61,0,0,1-7.46-2,19.64,19.64,0,0,1-6.15-6q-3.56-5-6.84-9.71c-2.19-3.12-4.29-6.14-6.34-9.07s-4-5.78-5.94-8.56l-5.66-8.19-5.45-8-5.36-7.86-5.36-7.92-5.45-8.12q-2.78-4.14-5.66-8.48c-1.93-2.91-3.91-5.89-5.95-9s-4.16-6.32-6.35-9.68-4.47-6.85-6.85-10.53c0,2.51,0,4.92,0,7.26s0,4.6,0,6.8c0,4.4,0,8.54.06,12.53s0,7.82.05,11.6,0,7.52,0,11.3,0,7.62.05,11.6,0,8.13.06,12.53c0,2.2,0,4.46,0,6.8s0,4.75,0,7.26a34.59,34.59,0,0,1-1.52,10.92,20.76,20.76,0,0,1-4.68,8,21.41,21.41,0,0,1-7.83,5.16A39.42,39.42,0,0,1,304,398.4c-.31-.68-.46-1-.77-1.72q0-3.65,0-7.11t0-6.78c0-4.42,0-8.65-.06-12.73s0-8-.05-11.85,0-7.58-.06-11.27,0-7.34-.05-11,0-7.29,0-11,0-7.44-.05-11.27,0-7.78-.05-11.86,0-8.31-.06-12.73q0-3.31,0-6.78t0-7.11a37.31,37.31,0,0,0-1.62-11.12,27.71,27.71,0,0,0-4.76-9,30.91,30.91,0,0,0-7.89-6.93C289.28,245.6,291.16,244.49,294.05,244.84ZM304,398.4c-.51,0-.76-.51-.77-1.53s.25-1.33.75-1.33q1.14,0,1.14,1.35C305.13,397.9,304.76,398.41,304,398.4Z"/><path d="M575.86,227h.92a2.23,2.23,0,0,1,2.07,2.29c.67,4,1.26,7.5,1.82,10.82s1.07,6.39,1.57,9.39l1.49,8.93c.5,3,1,6.08,1.57,9.4s1.15,6.87,1.81,10.82c0,1.82-.85,2.74-2.53,2.76l-5.41,0-5.4,0c-2.15.15-3.6-.61-4.37-2.29a69.69,69.69,0,0,0-5.68-7.49,59.18,59.18,0,0,0-6.33-6.25,53.31,53.31,0,0,0-7-5,51.94,51.94,0,0,0-7.61-3.8,56,56,0,0,0-8.24-2.58,51.48,51.48,0,0,0-8.88-1.38,31.84,31.84,0,0,0-9.46,1,17.41,17.41,0,0,0-6.76,3.26,13.47,13.47,0,0,0-4,5.58,21,21,0,0,0-1.34,7.91,12.42,12.42,0,0,0,1.2,5.2,21.18,21.18,0,0,0,3.59,5.29,41.34,41.34,0,0,0,6,5.39,79.09,79.09,0,0,0,8.37,5.45q4.77,2.75,10.74,5.5c2,.91,4.09,1.84,6.28,2.76s4.48,1.85,6.86,2.75c3.79,1.45,7.39,2.95,10.75,4.55a104.19,104.19,0,0,1,9.38,5,80.14,80.14,0,0,1,8,5.55,62,62,0,0,1,6.65,6.07,50.49,50.49,0,0,1,5.28,6.59,45.67,45.67,0,0,1,7.67,23,50.1,50.1,0,0,1-.38,8.74,41.9,41.9,0,0,1-1.74,7.84,36.06,36.06,0,0,1-3.11,6.95,35.13,35.13,0,0,1-4.49,6.05,38.36,38.36,0,0,1-5.85,5.15,48.13,48.13,0,0,1-7.22,4.25,64,64,0,0,1-8.59,3.34,86.37,86.37,0,0,1-10,2.45q-5.32,1-11.33,1.56-3,.27-6.19.44c-2.11.11-4.29.18-6.51.21a90.64,90.64,0,0,1-10.13-.44,80.12,80.12,0,0,1-9.52-1.5,71.52,71.52,0,0,1-8.91-2.58,66.31,66.31,0,0,1-8.3-3.66,64.25,64.25,0,0,1-7.7-4.75,68.21,68.21,0,0,1-7.1-5.83,75.44,75.44,0,0,1-6.48-6.94,85.22,85.22,0,0,1-5.89-8,3.76,3.76,0,0,1,0-3.62l4.11-4.1L473.7,355a4.23,4.23,0,0,1,4.82,1.54,88,88,0,0,0,7.32,7.17,76.66,76.66,0,0,0,7.74,5.91,67.44,67.44,0,0,0,8.13,4.65,65.73,65.73,0,0,0,8.54,3.4,67.1,67.1,0,0,0,18.3,3.08,63,63,0,0,0,10.9-.75,36.1,36.1,0,0,0,8.48-2.28,19.88,19.88,0,0,0,6.05-3.82,14.81,14.81,0,0,0,3.64-5.36,17.14,17.14,0,0,0,1.21-6.89,8.94,8.94,0,0,0-1.53-4,25.17,25.17,0,0,0-3.83-4.52,60.61,60.61,0,0,0-6.12-5.07q-3.63-2.67-8.42-5.62t-10.72-6.19c-2-1.09-4.09-2.17-6.27-3.29s-4.46-2.27-6.74-3.51c-1.94-1-3.85-2.17-5.7-3.33s-3.64-2.34-5.37-3.48q-5.16-3.42-9.59-6.84t-8.14-6.87a86.75,86.75,0,0,1-6.66-6.87,63.42,63.42,0,0,1-5.21-6.86,48.71,48.71,0,0,1-3.73-6.85,31.86,31.86,0,0,1-2.49-10.08,56.12,56.12,0,0,1,.37-12.54,48.94,48.94,0,0,1,3.2-8.19,40.58,40.58,0,0,1,4.47-7,38.52,38.52,0,0,1,5.74-5.82,42.48,42.48,0,0,1,7-4.66,52.53,52.53,0,0,1,8.28-3.5,70,70,0,0,1,9.54-2.37,97.39,97.39,0,0,1,10.82-1.26,117.16,117.16,0,0,1,12.08-.17c3.27.13,6.5.5,9.58.93s6.07,1,9,1.68a83.83,83.83,0,0,1,8.32,2.42,74,74,0,0,1,7.68,3.17,16.13,16.13,0,0,0,6.91-5A26.59,26.59,0,0,0,575.86,227Z"/><path d="M630.13,259.53l8.84-.29,7.68-.29,7.29-.29c2.45-.1,5-.21,7.68-.34l8.84-.42q3.21,1.08,3.2,5.14c0,2.49,0,4.82,0,7s0,4.32,0,6.34c0,4.05,0,7.78,0,11.52s0,7.47,0,11.52c0,2,0,4.12,0,6.34s0,4.55,0,7l9.66-.32,8.5-.31,7.93-.3,7.92-.33,8.5-.36,9.66-.44c0-4.32,0-8.21,0-11.83s0-7,0-10.28,0-6.47,0-9.76,0-6.64,0-10.27,0-7.51,0-11.83c0-.72.76-1.56,2.27-2.52l7.48-.58,6.42-.51,6.43-.54L756,252q3,1,3,5.24,0,3.78,0,7.35t0,6.94c0,4.5,0,8.76,0,12.86s0,8.06-.05,11.93,0,7.65,0,11.44,0,7.58,0,11.45,0,7.81-.05,11.92,0,8.37,0,12.87q0,3.38,0,6.93t0,7.36a91.25,91.25,0,0,1-1.12,11.26,53.58,53.58,0,0,1-2.33,9.14,30.35,30.35,0,0,1-3.54,7,19.73,19.73,0,0,1-4.74,4.85,50.18,50.18,0,0,1-7,4.2,34.76,34.76,0,0,1-6.64,2.52,25.64,25.64,0,0,1-6.32.85l-1.5-2.16c0-4.42,0-8.48,0-12.29s0-7.38,0-10.83,0-6.76,0-10.08,0-6.65,0-10.09,0-7,0-10.82,0-7.87,0-12.3l-9.66.35-8.49.3-7.92.26-7.92.24-8.5.25-9.66.26c0,5,0,9.1,0,13s0,7.45,0,11.31,0,8,0,13a36,36,0,0,1-1.2,9.14,25.1,25.1,0,0,1-3.33,7.45,23.35,23.35,0,0,1-5.48,5.75,29.62,29.62,0,0,1-7.62,4,72.82,72.82,0,0,1-8.17,2.65,25.5,25.5,0,0,1-6,.89l-1.7-2.09c0-2.5,0-4.92,0-7.29s0-4.66,0-6.91c0-4.5,0-8.78,0-12.91s0-8.1,0-12,0-7.67,0-11.43,0-7.48,0-11.24,0-7.54,0-11.43,0-7.85,0-12,0-8.41,0-12.9c0-2.25,0-4.55,0-6.92s0-4.79,0-7.28a22.73,22.73,0,0,0-1.47-8.37,20.68,20.68,0,0,0-4.47-6.9,29.26,29.26,0,0,0-7.46-5.46v-.7Q627.1,260.51,630.13,259.53ZM642,398.38c-1.26,0-1.89-.52-1.89-1.57s.63-1.57,1.89-1.58,1.7.52,1.7,1.57S643.1,398.38,642,398.38Zm0,0c-1.26,0-1.89-.52-1.89-1.57s.63-1.57,1.89-1.58,1.7.52,1.7,1.57S643.1,398.38,642,398.38Zm85.1-.26c-1.13,0-1.69-.53-1.69-1.61s.57-1.63,1.71-1.64,1.88.53,1.88,1.62S728.33,398.12,727.07,398.12Z"/><path d="M817.92,245.2l8.66-1,7.71-1,7.14-.92,7-.92,7.13-1c2.46-.34,5-.69,7.71-1.08s5.56-.79,8.64-1.25a4.79,4.79,0,0,1,3.93,3.62v.8a48.38,48.38,0,0,0-7.46,7.14,27.93,27.93,0,0,0-4.49,7.4,21,21,0,0,0-1.53,7.73q0,3.57,0,6.94c0,2.26,0,4.45,0,6.6,0,4.28,0,8.36-.06,12.3s0,7.72-.05,11.42,0,7.31,0,10.89,0,7.14-.05,10.72,0,7.2,0,10.89,0,7.49-.06,11.43,0,8-.06,12.3q0,3.21,0,6.59c0,2.25,0,4.57,0,6.94a19.25,19.25,0,0,0,1.45,7.51,22.52,22.52,0,0,0,4.43,6.71,37,37,0,0,0,7.4,6v.8a4.56,4.56,0,0,1-4,4l-10,.09-8.79.08-8.18.07-8.18.07-8.79.07-10,.08q-3.78-.56-3.94-3.78v-.77a37.67,37.67,0,0,0,7.57-5.93,22.53,22.53,0,0,0,4.55-6.66,18.47,18.47,0,0,0,1.54-7.37c0-4.62,0-9,.07-13.16s0-8.14,0-12,0-7.51.05-11.11,0-7.11,0-10.59,0-6.94.05-10.43,0-7,0-10.59,0-7.28,0-11.11,0-7.79.06-12,0-8.54.06-13.16a17.17,17.17,0,0,0-1.47-7.17,18.8,18.8,0,0,0-4.5-6.08,31.38,31.38,0,0,0-7.52-5v-.76A6.79,6.79,0,0,1,817.92,245.2Z"/><path d="M911.88,165.9c2.76-.71,5.31-1.37,7.73-2l6.88-1.84,6.37-1.74c2.08-.57,4.13-1.14,6.2-1.73l6.37-1.82,6.87-2,7.71-2.3a11.41,11.41,0,0,1,7.3-.43,9,9,0,0,1,5,4.54c2.22,3.46,4.36,6.81,6.43,10.08s4.08,6.46,6,9.58,3.84,6.17,5.69,9.17,3.65,5.93,5.41,8.84,3.51,5.77,5.22,8.62,3.4,5.68,5.07,8.5,3.35,5.66,5,8.5,3.33,5.7,5,8.6,3.37,5.84,5.08,8.84,3.45,6,5.22,9.19,3.57,6.36,5.42,9.69,3.74,6.76,5.69,10.32,4,7.26,6,11.11q1.56,2.89,3.16,5.91t3.28,6.16q0-3.82,0-7.45c0-2.42,0-4.77,0-7.07,0-4.6,0-9,0-13.2s0-8.28,0-12.25,0-7.84,0-11.69,0-7.65,0-11.49,0-7.72,0-11.69,0-8,0-12.25,0-8.6,0-13.2c0-2.3,0-4.65,0-7.07s0-4.9,0-7.45a100.27,100.27,0,0,0-.7-12.37,58.28,58.28,0,0,0-2.15-10.19,34.16,34.16,0,0,0-3.59-8,22.63,22.63,0,0,0-5-5.73,20.75,20.75,0,0,0-6.48-3.51,15.85,15.85,0,0,1,2.47-6.31,9.69,9.69,0,0,1,4.51-3.52c3.07-1.18,5.93-2.3,8.63-3.36s5.23-2.08,7.68-3.07,4.79-1.94,7.11-2.89,4.6-1.9,6.92-2.88l7.1-3,7.66-3.31c2.69-1.18,5.54-2.43,8.6-3.8,1.91.14,3.27,1.52,4.06,4.15v3.37a40.94,40.94,0,0,0-6.57,6.71,47.15,47.15,0,0,0-5.19,8.36,61,61,0,0,0-3.78,10,84.77,84.77,0,0,0-2.4,11.72,121.11,121.11,0,0,0-1,13.47c0,2.58,0,5.12,0,7.62v7.42c0,2.44,0,4.85,0,7.23V197c0,2.26,0,4.51,0,6.72q0,6.66,0,13v12.56q0,6.17,0,12.17c0,4,0,8,0,11.89s0,7.83,0,11.7v11.61c0,3.86,0,7.72,0,11.6s0,7.78,0,11.7v11.89c0,4,0,8.06,0,12.18s0,8.3,0,12.56,0,8.6,0,13v6.73c0,2.26,0,4.56,0,6.88V377.5q0,3.66,0,7.42v7.62a7,7,0,0,1-4.12,6.26l-7.73.15-7.73.13a13.21,13.21,0,0,1-6.55-1.6,19.32,19.32,0,0,1-5.8-5,40.23,40.23,0,0,1-5-8.32c-1.07-2.22-2.11-4.4-3.14-6.55s-2-4.24-3.06-6.3-2-4.1-3-6.09-1.94-4-2.89-5.89c-1.9-3.86-3.76-7.59-5.57-11.22s-3.59-7.14-5.33-10.58-3.44-6.77-5.12-10-3.34-6.47-5-9.62-3.25-6.24-4.86-9.29-3.2-6.07-4.79-9.05-3.18-6-4.78-8.91-3.18-5.9-4.79-8.84-3.22-5.9-4.86-8.86-3.29-6-5-9-3.38-6-5.12-9.12-3.51-6.19-5.32-9.36-3.66-6.38-5.56-9.66-3.84-6.62-5.85-10-4-6.89-6.17-10.45c0,2.4,0,4.76,0,7.06s0,4.57,0,6.79c0,4.44,0,8.71,0,12.85s0,8.14,0,12.05,0,7.71,0,11.44,0,7.41,0,11.05,0,7.24,0,10.84,0,7.21,0,10.85,0,7.31,0,11.05,0,7.54,0,11.44,0,7.91,0,12.05,0,8.41-.05,12.84q0,3.33,0,6.79t0,7.06a84.29,84.29,0,0,1-.76,11.4,56,56,0,0,1-2.22,9.74,38.57,38.57,0,0,1-3.66,8,30,30,0,0,1-5.11,6.29,28.63,28.63,0,0,1-6.56,4.57c-2.51.93-4.53,1.62-6.07,2.09a13.44,13.44,0,0,1-3.15.69c-.38-1.07-.57-1.61-1-2.68q0-3.81,0-7.49t0-7.26q0-3.57,0-7t0-6.83c0-4.5,0-8.86.06-13.13s0-8.43,0-12.52,0-8.09.05-12,0-7.85,0-11.71,0-7.69,0-11.5,0-7.62,0-11.44,0-7.64,0-11.5,0-7.76.05-11.71,0-8,0-12,0-8.26,0-12.52,0-8.64.06-13.14q0-3.36,0-6.83t0-7q0-3.57,0-7.26t0-7.5a67.16,67.16,0,0,0-1.09-13,38,38,0,0,0-3.36-10.21,24.83,24.83,0,0,0-5.64-7.41,23.8,23.8,0,0,0-7.92-4.6,12.41,12.41,0,0,1,2.68-5.29A9.26,9.26,0,0,1,911.88,165.9Zm10.93,236.39c-.65,0-1-.79-1-2.38,0-1.4.33-2.1,1-2.11,1,0,1.45.69,1.44,2.09C924.27,401.48,923.78,402.29,922.81,402.29Z"/><path d="M531.3,199.7c-92.14-.74-185.14-3.92-275.49-24.23-15.07-3.74-30.12-7.93-44.79-14.25-48.09-20.07-47.79-52.93-1.33-75.91C340.11,25.76,575.32,25.8,716.91,47.67c46.48,7.83,93.17,16.73,136,37.55,45.69,22.57,47.65,55.58-1.34,76.06-14.67,6.32-29.73,10.52-44.81,14.24C716.44,195.81,623.44,199,531.3,199.7Zm0,0c91.72-.62,184.76-7.48,273-33.17,14.51-4.46,28.81-9.7,42-16.43,10.08-5.3,25.66-14.3,26-25.43-.14-3.89-3.81-8.61-9.11-12.52-17.57-12.39-39.46-18-60.51-23.38-29.15-7-59.23-11.23-89.34-14.63a1805.08,1805.08,0,0,0-364.15-.08c-30.12,3.36-60.2,7.59-89.35,14.63-18.56,4.8-65.86,16.32-69.68,36,2.31,27.68,87.94,48,112.38,53.28,75,16,152,21.45,228.73,21.75Z"/><path d="M536.35,28.88,531.34,0l-5,28.87Q531.35,28.85,536.35,28.88Z"/><path d="M550.27,70.44q-9.67-.1-19.32-.12c-6.17,0-12.35.05-18.53.11a75.87,75.87,0,0,1-50.11,32.62l-41.17,7.15,34.26,5.94A76,76,0,0,1,518.29,187L531.34,430l13-243.08a76,76,0,0,1,62.9-70.81l34.25-5.94-41.17-7.15A75.86,75.86,0,0,1,550.27,70.44Z"/></g></svg>