<?xml version="1.0" encoding="utf-8"?>
<!-- Generator: Adobe Illustrator 26.2.1, SVG Export Plug-In . SVG Version: 6.00 Build 0)  -->
<svg version="1.1" id="Layer_1" xmlns="http://www.w3.org/2000/svg" xmlns:xlink="http://www.w3.org/1999/xlink" x="0px" y="0px"
	 viewBox="0 0 818.3 254.8" style="enable-background:new 0 0 818.3 254.8;" xml:space="preserve">
<style type="text/css">
	.st0{enable-background:new    ;}
</style>
<g id="Layer_2_00000067945319363959496480000017304824898928599189_">
	<g id="Layer_1-2">
		<g id="Layer_2-2">
			<g id="Layer_1-2-2">
				<g>
					<path d="M136.6,78.5H33.4c-5.5,0-10-4.5-10-10V28.6C23.4,15.7,12.9,5.2,0,5.2l0,0v170l0,0c12.9,0,23.4-10.5,23.4-23.4
						c0,0,0,0,0,0l0,0v-39.9c0-5.5,4.5-10,10-10h103.1c5.5,0,10,4.5,10,10v39.9c0,12.9,10.5,23.4,23.4,23.4l0,0l0,0V5.2l0,0
						c-12.9,0-23.4,10.5-23.4,23.4v39.8C146.6,74,142.1,78.5,136.6,78.5z"/>
				</g>
				<g>
					<path d="M196.4,175.2L196.4,175.2c17.2,0,33-9.2,41.4-24.2l48.3-86c2.7-4.8,8.8-6.5,13.6-3.8c1.6,0.9,2.9,2.2,3.8,3.8
						l48.2,85.9c8.4,15,24.3,24.3,41.5,24.3l0,0L295,0L196.4,175.2z"/>
				</g>
				<g>
					<path d="M419.8,5.2v146.6c0,12.9,10.5,23.4,23.4,23.4c0,0,0,0,0,0l0,0V28.6C443.2,15.7,432.7,5.2,419.8,5.2L419.8,5.2z"/>
				</g>
				<g>
					<path d="M620.6,74.6c14.5-15.7,22.6-36.3,22.6-57.7V5.2h-12.7c-5.9,0-10.8,4.8-10.8,10.8c0,0,0,0,0,0l0,0l0,0
						c0,33-25.7,60.9-58.6,62.4c-34,1.6-62.8-24.7-64.4-58.7c0,0,0,0,0,0c0-0.9-0.1-1.9-0.1-2.8l0,0c0-6.5-5.2-11.7-11.7-11.7
						c0,0,0,0,0,0h-11.7v11.7c0,42.4,31.3,78.3,73.3,84.2v74.1l0,0c12.9,0,23.4-10.5,23.4-23.4v-50.7
						C589.4,98.4,607.3,89.1,620.6,74.6z"/>
				</g>
				<g>
					<path d="M699.8,0l-98.5,175.2l0,0c17.2,0,33-9.2,41.4-24.2L691,65c2.7-4.8,8.8-6.5,13.6-3.8c1.6,0.9,2.9,2.2,3.8,3.8l48.2,85.9
						c8.4,15,24.3,24.3,41.5,24.3l0,0L699.8,0z"/>
				</g>
			</g>
		</g>
		<g class="st0">
			<path d="M18.2,235.4c-2.5,0-4.7-0.4-6.8-1.1s-3.8-1.9-5.3-3.4c-1.5-1.5-2.6-3.5-3.4-5.7s-1.2-4.9-1.2-7.9c0-2.8,0.4-5.3,1.2-7.6
				s1.9-4.1,3.4-5.7c1.4-1.5,3.2-2.7,5.2-3.5s4.4-1.2,6.8-1.2c1.2,0,2.3,0.1,3.4,0.3s2.1,0.4,3.1,0.7c0.8,0.2,1.7,0.6,2.6,1
				s1.7,0.8,2.3,1.1v5.6h-0.4c-0.6-0.5-1.2-1-1.8-1.5s-1.5-1-2.6-1.5c-0.9-0.5-2-0.9-3.2-1.2s-2.5-0.5-3.9-0.5
				c-3.4,0-6.1,1.3-8.1,3.8s-3.1,5.9-3.1,10.1c0,2.3,0.3,4.4,0.8,6.1s1.3,3.2,2.4,4.5c1,1.2,2.2,2.1,3.6,2.8s3,0.9,4.8,0.9
				c1.3,0,2.6-0.1,3.9-0.3s2.4-0.5,3.3-0.8v-9h-8.1v-4.1h12.7v15.2c-0.6,0.3-1.4,0.6-2.4,1s-1.9,0.7-2.8,1c-1.1,0.3-2.2,0.6-3.1,0.8
				S19.5,235.4,18.2,235.4z"/>
			<path d="M52,234.7l11.8-34.9h5.7l11.8,34.9h-4.9l-3.2-9.8H59.8l-3.2,9.8H52z M71.9,221l-5.4-16.5L61.1,221H71.9z"/>
			<path d="M134.6,234.7H130v-30.1l-9.1,20.5h-2.8l-9-20.5v30.1h-4.3v-34.9h6.3l8.7,19.4l8.4-19.4h6.4V234.7z"/>
			<path d="M161.8,234.7v-34.9h21.8v4.1h-17.2v9.6h16v4.1h-16v13h17.2v4.1H161.8z"/>
			<path d="M265,203.9h-16.2v9.8h15.6v4.1h-15.6v16.8h-4.6v-34.9H265V203.9z"/>
			<path d="M314,203.8c1.3,1.5,2.4,3.4,3.1,5.7s1.1,4.9,1.1,7.8c0,2.8-0.4,5.4-1.1,7.7s-1.8,4.2-3.1,5.7c-1.4,1.6-3.1,2.8-5,3.6
				s-4,1.2-6.3,1.2c-2.4,0-4.5-0.4-6.4-1.2s-3.5-2-4.9-3.6c-1.3-1.5-2.4-3.5-3.1-5.7s-1.1-4.8-1.1-7.7c0-2.9,0.4-5.5,1.1-7.7
				s1.8-4.1,3.1-5.7c1.3-1.5,3-2.7,4.9-3.5s4-1.2,6.4-1.2c2.4,0,4.5,0.4,6.4,1.2S312.7,202.3,314,203.8z M313.3,217.3
				c0-2.3-0.2-4.4-0.8-6.1s-1.2-3.3-2.1-4.4c-0.9-1.2-2-2.1-3.3-2.7s-2.8-0.9-4.4-0.9c-1.7,0-3.2,0.3-4.4,0.9s-2.4,1.5-3.3,2.7
				c-0.9,1.2-1.6,2.7-2.1,4.5s-0.7,3.8-0.7,6.1c0,4.6,1,8.1,2.9,10.5s4.5,3.6,7.7,3.6s5.8-1.2,7.7-3.6S313.3,221.9,313.3,217.3z"/>
			<path d="M370.4,234.7h-6l-11.1-13.9H348v13.9h-4.6v-34.9h9c2,0,3.7,0.1,5,0.3s2.6,0.7,3.9,1.5c1.2,0.8,2.2,1.8,2.9,3
				s1.1,2.8,1.1,4.6c0,2.6-0.6,4.7-1.9,6.4s-3.1,3-5.3,3.8L370.4,234.7z M360.4,209.6c0-1-0.2-1.9-0.5-2.7s-0.9-1.4-1.7-1.9
				c-0.7-0.4-1.4-0.7-2.3-0.9s-2-0.3-3.3-0.3H348V217h4.1c1.3,0,2.5-0.1,3.6-0.4s2-0.7,2.7-1.5c0.7-0.7,1.2-1.4,1.5-2.3
				S360.4,210.9,360.4,209.6z"/>
			<path d="M428.5,234.7v-34.9h21.8v4.1h-17.2v9.6h16v4.1h-16v13h17.2v4.1H428.5z"/>
			<path d="M500.9,199.8l-12,34.9h-5l-12-34.9h5l9.7,29l9.7-29H500.9z"/>
			<path d="M524.4,234.7v-34.9h21.8v4.1H529v9.6h16v4.1h-16v13h17.2v4.1H524.4z"/>
		</g>
		<g class="st0">
			<path d="M598.5,234.7h-6l-11.1-13.9h-5.3v13.9h-4.6v-34.9h9c2,0,3.7,0.1,5,0.3s2.6,0.7,3.9,1.5c1.2,0.8,2.2,1.8,2.9,3
				s1.1,2.8,1.1,4.6c0,2.6-0.6,4.7-1.9,6.4s-3.1,3-5.3,3.8L598.5,234.7z M588.5,209.6c0-1-0.2-1.9-0.5-2.7s-0.9-1.4-1.7-1.9
				c-0.7-0.4-1.4-0.7-2.3-0.9s-2-0.3-3.3-0.3h-4.6V217h4.1c1.3,0,2.5-0.1,3.6-0.4s2-0.7,2.7-1.5c0.7-0.7,1.2-1.4,1.5-2.3
				S588.5,210.9,588.5,209.6z"/>
			<path d="M645,199.8l-11.8,19.5v15.4h-4.6v-15l-11.8-19.9h5.2l9,15.4l9.1-15.4H645z"/>
		</g>
		<g class="st0">
			<path d="M693.1,203.8c1.3,1.5,2.4,3.4,3.1,5.7s1.1,4.9,1.1,7.8c0,2.8-0.4,5.4-1.1,7.7s-1.8,4.2-3.1,5.7c-1.4,1.6-3.1,2.8-5,3.6
				s-4,1.2-6.3,1.2c-2.4,0-4.5-0.4-6.4-1.2s-3.5-2-4.9-3.6c-1.3-1.5-2.4-3.5-3.1-5.7s-1.1-4.8-1.1-7.7c0-2.9,0.4-5.5,1.1-7.7
				s1.8-4.1,3.1-5.7c1.3-1.5,3-2.7,4.9-3.5s4-1.2,6.4-1.2c2.4,0,4.5,0.4,6.4,1.2S691.8,202.3,693.1,203.8z M692.5,217.3
				c0-2.3-0.2-4.4-0.8-6.1s-1.2-3.3-2.1-4.4c-0.9-1.2-2-2.1-3.3-2.7s-2.8-0.9-4.4-0.9c-1.7,0-3.2,0.3-4.4,0.9s-2.4,1.5-3.3,2.7
				c-0.9,1.2-1.6,2.7-2.1,4.5s-0.7,3.8-0.7,6.1c0,4.6,1,8.1,2.9,10.5s4.5,3.6,7.7,3.6s5.8-1.2,7.7-3.6S692.5,221.9,692.5,217.3z"/>
			<path d="M747.5,234.7h-5.2l-15.4-30.1v30.1h-4.3v-34.9h6.6l14,27.6v-27.6h4.3V234.7z"/>
			<path d="M774.7,234.7v-34.9h21.8v4.1h-17.2v9.6h16v4.1h-16v13h17.2v4.1H774.7z"/>
		</g>
	</g>
</g>
</svg>
