<svg xmlns="http://www.w3.org/2000/svg" viewBox="0 0 798.14 175.21"><g id="Layer_2" data-name="Layer 2"><g id="Layer_1-2" data-name="Layer 1"><path d="M136.57,78.49H33.43a10,10,0,0,1-10-10V28.64A23.43,23.43,0,0,0,0,5.21H0v170H0a23.43,23.43,0,0,0,23.43-23.44V111.92a10,10,0,0,1,10-10H136.57a10,10,0,0,1,10,10v39.86A23.43,23.43,0,0,0,170,175.21h0V5.21h0a23.43,23.43,0,0,0-23.43,23.43V68.49A10,10,0,0,1,136.57,78.49Z"/><path d="M196.45,175.21h0A47.54,47.54,0,0,0,237.89,151L286.2,65a10,10,0,0,1,17.44,0l48.19,85.89a47.62,47.62,0,0,0,41.51,24.31h0L295,0Z"/><path d="M419.79,5.21V151.77a23.43,23.43,0,0,0,23.43,23.44h0l0-146.6a23.4,23.4,0,0,0-23.4-23.4Z"/><path d="M620.61,74.61A84.68,84.68,0,0,0,643.2,16.92V5.21H630.55A10.77,10.77,0,0,0,619.77,16h0c0,33-25.65,60.89-58.64,62.43a61.63,61.63,0,0,1-64.5-61.5h0A11.71,11.71,0,0,0,484.92,5.21H473.2V16.92a85,85,0,0,0,73.29,84.18v74.11h0a23.43,23.43,0,0,0,23.42-23.43V101.1A84.72,84.72,0,0,0,620.61,74.61Z"/><path d="M699.8,0,601.25,175.21h0A47.52,47.52,0,0,0,642.69,151L691,65a10,10,0,0,1,17.44,0l48.19,85.89a47.62,47.62,0,0,0,41.51,24.31h0Z"/></g></g></svg>